<?xml version="1.0" encoding="utf-8"?>
<!-- Generator: Adobe Illustrator 16.0.0, SVG Export Plug-In . SVG Version: 6.00 Build 0)  -->
<!DOCTYPE svg PUBLIC "-//W3C//DTD SVG 1.1//EN" "http://www.w3.org/Graphics/SVG/1.1/DTD/svg11.dtd">
<svg version="1.1" id="Layer_1" xmlns="http://www.w3.org/2000/svg" xmlns:xlink="http://www.w3.org/1999/xlink" x="0px" y="0px"
	 width="500px" height="500px" viewBox="0 0 500 500" enable-background="new 0 0 500 500" xml:space="preserve">
<g id="Layer_1_copy_12">
	<g>
		<g>
			<g>
				<path fill="#2252A4" d="M208.736,358.879c-3.466,0-6.272-2.811-6.272-6.275V27.376c0-3.465,2.807-6.272,6.272-6.272
					c3.465,0,6.273,2.807,6.273,6.272v325.228C215.01,356.068,212.202,358.879,208.736,358.879z"/>
			</g>
		</g>
		<g>
			<g>
				<path fill="#2252A4" d="M208.736,95.906c-0.056,0-0.113,0-0.174-0.005c-1.72-0.044-3.344-0.796-4.499-2.08l-42.599-47.513
					c-2.311-2.58-2.096-6.544,0.484-8.857c2.58-2.318,6.545-2.099,8.861,0.483l38.175,42.579l42.834-42.828
					c2.449-2.448,6.418-2.45,8.867,0.002c2.448,2.449,2.448,6.42,0,8.87L213.167,94.07
					C211.995,95.247,210.399,95.906,208.736,95.906z"/>
			</g>
		</g>
		<g>
			<g>
				<path fill="#2252A4" d="M166.134,342.902c-1.49,0-2.985-0.527-4.185-1.602c-2.58-2.311-2.795-6.275-0.484-8.855l42.599-47.52
					c1.155-1.277,2.779-2.033,4.499-2.078c1.755-0.086,3.393,0.616,4.606,1.83l47.519,47.52c2.449,2.449,2.449,6.42,0,8.869
					s-6.418,2.449-8.867,0l-42.834-42.83l-38.175,42.582C169.566,342.2,167.855,342.902,166.134,342.902z"/>
			</g>
		</g>
		<g>
			<g>
				<path fill="#2252A4" d="M346.308,286.771c-1.174,0-2.353-0.326-3.408-1.013L69.984,108.865
					c-2.904-1.885-3.733-5.769-1.853-8.678c1.89-2.905,5.772-3.732,8.678-1.852l272.915,176.899
					c2.904,1.886,3.733,5.769,1.853,8.674C350.373,285.764,348.359,286.771,346.308,286.771z"/>
			</g>
		</g>
		<g>
			<g>
				<path fill="#2252A4" d="M62.595,153.645c-3.03,0-5.699-2.21-6.188-5.302c-0.536-3.425,1.803-6.634,5.225-7.17l56.496-8.877
					l-12.642-59.241c-0.724-3.388,1.438-6.721,4.821-7.442c3.388-0.726,6.723,1.437,7.446,4.824l14.024,65.718
					c0.364,1.686,0.011,3.445-0.964,4.863c-0.976,1.421-2.493,2.376-4.195,2.645l-63.041,9.904
					C63.248,153.616,62.919,153.645,62.595,153.645z"/>
			</g>
		</g>
		<g>
			<g>
				<path fill="#2252A4" d="M309.733,313.827c-2.763,0-5.293-1.841-6.051-4.63l-16.7-61.583c-0.449-1.661-0.197-3.441,0.699-4.911
					c0.897-1.471,2.36-2.507,4.047-2.868l65.711-14.032c3.396-0.715,6.723,1.438,7.445,4.826c0.724,3.388-1.438,6.719-4.827,7.442
					l-59.233,12.652l14.966,55.188c0.911,3.347-1.067,6.793-4.411,7.697C310.83,313.759,310.278,313.827,309.733,313.827z"/>
			</g>
		</g>
		<g>
			<g>
				<path fill="#2252A4" d="M81.367,293.332c-1.934,0-3.844-0.891-5.07-2.571c-2.043-2.794-1.434-6.724,1.365-8.767L340.229,90.081
					c2.805-2.04,6.721-1.431,8.771,1.366c2.044,2.797,1.435,6.722-1.365,8.765L85.059,292.125
					C83.947,292.941,82.65,293.332,81.367,293.332z"/>
			</g>
		</g>
		<g>
			<g>
				<path fill="#2252A4" d="M118.408,319.032c-0.431,0-0.869-0.05-1.309-0.144c-3.388-0.716-5.553-4.046-4.834-7.434l11.85-55.956
					l-59.852-9.304c-3.425-0.528-5.769-3.737-5.236-7.162c0.537-3.421,3.733-5.773,7.162-5.232l66.397,10.323
					c1.706,0.264,3.224,1.215,4.2,2.632c0.979,1.418,1.332,3.178,0.975,4.863l-13.224,62.438
					C123.913,317.003,121.306,319.032,118.408,319.032z"/>
			</g>
		</g>
		<g>
			<g>
				<path fill="#2252A4" d="M356.172,145.24c-0.208,0-0.419-0.008-0.635-0.029l-63.487-6.354c-1.711-0.171-3.282-1.04-4.335-2.401
					c-1.056-1.365-1.504-3.1-1.238-4.802l10.318-66.404c0.532-3.425,3.745-5.778,7.161-5.234c3.425,0.53,5.769,3.737,5.237,7.16
					l-9.305,59.86l56.898,5.692c3.45,0.345,5.964,3.416,5.619,6.865C362.083,142.827,359.355,145.24,356.172,145.24z"/>
			</g>
		</g>
	</g>
	<g>
		<g>
			<path fill="#C2E8F8" d="M275.072,299.589c-22.916,17.532-37.694,45.165-37.694,76.265c0,52.98,42.922,95.934,95.909,95.934
				c52.986,0,95.938-42.952,95.938-95.934c0-30.957-14.652-58.488-37.401-76.024L388.02,79.76c0-31.153-24.894-56.402-55.604-56.402
				s-55.606,25.249-55.606,56.402L275.072,299.589z"/>
		</g>
		<g>
			<path fill="#3C2517" d="M333.287,475.549c-54.961,0-99.676-44.724-99.676-99.695c0-30.701,13.724-59.063,37.716-78.113
				l1.713-218.011c0-33.145,26.635-60.134,59.374-60.134c32.734,0,59.372,26.989,59.372,60.165l3.767,218.211
				c23.817,19.047,37.438,47.323,37.438,77.883C432.989,430.826,388.26,475.549,333.287,475.549z M332.414,27.122
				c-28.587,0-51.846,23.613-51.846,52.638l-1.729,219.857c-0.013,1.16-0.553,2.255-1.479,2.962
				c-23.019,17.61-36.22,44.317-36.22,73.274c0,50.819,41.337,92.169,92.147,92.169c50.825,0,92.174-41.35,92.174-92.169
				c0-28.812-13.098-55.44-35.937-73.047c-0.907-0.699-1.447-1.772-1.469-2.914l-3.798-220.068
				C384.259,50.735,361.002,27.122,332.414,27.122z"/>
		</g>
	</g>
	<g>
		<g>
			<line fill="none" x1="388.192" y1="89.59" x2="359.621" y2="89.59"/>
		</g>
		<g>
			<path fill="#3C2517" d="M388.192,93.354h-28.571c-2.081,0-3.769-1.683-3.769-3.764c0-2.077,1.688-3.764,3.769-3.764h28.571
				c2.078,0,3.765,1.687,3.765,3.764C391.957,91.671,390.271,93.354,388.192,93.354z"/>
		</g>
	</g>
	<g>
		<g>
			<line fill="none" x1="388.192" y1="113.114" x2="359.621" y2="113.114"/>
		</g>
		<g>
			<path fill="#3C2517" d="M388.192,116.879h-28.571c-2.081,0-3.769-1.686-3.769-3.766c0-2.076,1.688-3.761,3.769-3.761h28.571
				c2.078,0,3.765,1.686,3.765,3.761C391.957,115.194,390.271,116.879,388.192,116.879z"/>
		</g>
	</g>
	<g>
		<g>
			<line fill="none" x1="388.192" y1="136.644" x2="359.621" y2="136.644"/>
		</g>
		<g>
			<path fill="#3C2517" d="M388.192,140.406h-28.571c-2.081,0-3.769-1.688-3.769-3.762c0-2.08,1.688-3.767,3.769-3.767h28.571
				c2.078,0,3.765,1.687,3.765,3.767C391.957,138.719,390.271,140.406,388.192,140.406z"/>
		</g>
	</g>
	<g>
		<g>
			<line fill="none" x1="388.192" y1="160.169" x2="359.621" y2="160.169"/>
		</g>
		<g>
			<path fill="#3C2517" d="M388.192,163.936h-28.571c-2.081,0-3.769-1.687-3.769-3.767s1.688-3.762,3.769-3.762h28.571
				c2.078,0,3.765,1.682,3.765,3.762S390.271,163.936,388.192,163.936z"/>
		</g>
	</g>
	<g>
		<g>
			<line fill="none" x1="388.192" y1="183.695" x2="359.621" y2="183.695"/>
		</g>
		<g>
			<path fill="#3C2517" d="M388.192,187.46h-28.571c-2.081,0-3.769-1.685-3.769-3.766c0-2.08,1.688-3.762,3.769-3.762h28.571
				c2.078,0,3.765,1.682,3.765,3.762C391.957,185.775,390.271,187.46,388.192,187.46z"/>
		</g>
	</g>
	<g>
		<g>
			<path fill="#2E77BD" d="M346.989,330.711V286.9h-28.075v43.983c-22.201,6.272-38.492,26.634-38.492,50.845
				c0,29.203,23.673,52.879,52.878,52.879c29.2,0,52.872-23.676,52.872-52.879C386.172,357.271,369.545,336.749,346.989,330.711z"/>
		</g>
		<g>
			<path fill="#3C2517" d="M333.3,438.37c-31.231,0-56.643-25.407-56.643-56.64c0-24.252,15.688-45.897,38.491-53.615V286.9
				c0-2.074,1.686-3.76,3.766-3.76h28.075c2.081,0,3.762,1.686,3.762,3.76v40.998c23.213,7.509,39.188,29.238,39.188,53.832
				C389.938,412.962,364.532,438.37,333.3,438.37z M322.675,290.667v40.218c0,1.686-1.115,3.165-2.737,3.624
				c-21.051,5.946-35.754,25.362-35.754,47.222c0,27.08,22.035,49.111,49.116,49.111c27.08,0,49.11-22.031,49.11-49.111
				c0-22.164-14.966-41.647-36.393-47.383c-1.647-0.439-2.79-1.935-2.79-3.637v-40.044H322.675z"/>
		</g>
	</g>
</g>
</svg>
